
<global>
amp_veltrack=0
ampeg_attack=0.01
ampeg_release=0.35
</global>

<group>
group_label=PP
lpc_hicc1=42
lpc_locc1=0

<region>
hikey=B2
hivel=127
lokey=A#2
lovel=0
lpc=5rBxQxvvBMRP+otDuBBUwdVlyEKw7nfCwWvdP/Za28GdJ91AyTwuQL+0CMC58YtAw/ikwOs0O0Br56M/U/VkQFVL7b/UvYDASugMQJd03z8QqUhApZ6EPEsyhcF7FD9B
lpc_rms=-41.66
offset=9353
pitch_keycenter=A#2
sample=Trombone_Scoop_PP_A#3.opus
</region>

<region>
hikey=B3
hivel=127
lokey=A#3
lovel=0
lpc=lZs/Q7/T9sPRy8JDXz3pwlOG4EKf3dXCsDP+QQqf6MHbWPtBn+mzQMbdwsEZKXM/iBX0P0cOGUGZxOk/26NIwQrXmkFeVSTB4/JOwd30L0Gtrfy/bOQiQTK2aMG1vMhA
lpc_rms=-39.67
offset=12237
pitch_keycenter=A#3
sample=Trombone_Scoop_PP_A#4.opus
</region>

<region>
hikey=B4
hivel=127
lokey=A#4
lovel=0
lpc=exV7Q3tRRcTFlF5EypPJw39iEkN4NmzDO65eQ5VAIsPr7hlDfUPEwmflJEIBn7TB3dpJQQKLksHTO7xAgNZOQlEWPsIKcLLB8ArWQUsfIMHuO7RBcSHAQXAyk8J5+xlC
lpc_rms=-32.50
offset=1563
pitch_keycenter=A#4
sample=Trombone_Scoop_PP_A#5.opus
</region>

<region>
hikey=C#3
hivel=127
lokey=C3
lovel=0
lpc=d+ktQ7u/v8OStUtDuU3awPlWjEKhHTvCqngMP2Phu8H0MypBG4pTwHinwkDNx4G/i73Iv7O9iL9AYI4/VNi8P+yZnj+XXF0/NVuzPg5qgL8melq/B12Dv/a9bsAw0IhA
lpc_rms=-44.60
offset=5057
pitch_keycenter=C3
sample=Trombone_Scoop_PP_C4.opus
</region>

<region>
hikey=C#4
hivel=127
lokey=C4
lovel=0
lpc=F0MhQ85r0sP9AqRDZx19wt/vUEINzq3CD5wNQk/NKMFdFA1B7hCzvmwQMcEqeg1BDyTivxmI6sAuJmdBOjKpwPUvbECS3DrAebtGwU3bOUG8rXXABeFPQYa3h8EQKdNA
lpc_rms=-42.46
offset=1272
sample=Trombone_Scoop_PP_C5.opus
</region>

<region>
hikey=C#5
hivel=127
lokey=C5
lovel=0
lpc=73xtQ024OcSR0FFE07zCwxUXGEM/mVrDfXQlQzp2n8J9d9ZCypQBw9IG10IT0ofCP0E+QseqlMIWBpBCAtnrP3ywM8IrF/xByT4NwvTfR0K4ZIDCSnvSQteZ1sLcIitC
lpc_rms=-32.80
offset=663
pitch_keycenter=C5
sample=Trombone_Scoop_PP_C6.opus
</region>

<region>
hikey=D#3
hivel=127
lokey=D3
lovel=0
lpc=fqoxQyEoy8PjEmlDvwNAwcBJlUIYaYHCn2mrQMmQpMHmFjxB2Fc1vySuib9Zz+g/7ATSvbasSEB8uac+l6QiwIgpC7xMvwA/eQ89wOH0ikCCqO+9Ltd3QKOkJsHa5KZA
lpc_rms=-43.82
offset=9719
pitch_keycenter=D3
sample=Trombone_Scoop_PP_D4.opus
</region>

<region>
hikey=D#4
hivel=127
lokey=D4
lovel=0
lpc=iPklQzoQ5sOaJdFDHn8Mw4pYnUJBGujC5P+rQrilGsKVtNBAUaWywHv7H8DQ1IJBfcrUwN2NA8G08FpBi4qkwEQEeMBOFEFAO0OmwGZwnUA7gG5ArImZP2SuZMG43hJB
lpc_rms=-40.24
offset=2547
pitch_keycenter=D4
sample=Trombone_Scoop_PP_D5.opus
</region>

<region>
hikey=D#5
hivel=127
lokey=D5
lovel=0
lpc=VfsgQ8mu48NsHuhD4IdPw4jPAEOXoETDfPQxQ1Tk1sKpJ4RCWV02woaxkEG2UjdBrLUBwauw6MCTwYA+NRBjQZCbosD+AyhBmSo4whZ0M0IRIP/B4OemQsd+1cI+pDhC
lpc_rms=-37.85
offset=9456
pitch_keycenter=D5
sample=Trombone_Scoop_PP_D6.opus
</region>

<region>
hikey=F2
hivel=127
lokey=C2
lovel=0
lpc=1OTsQvh+j8PmuERDAD7swZo0BEK9aRfCSVZYQfQL98BCf6RABXgHwYvoD0CyubTA6SWcQHzxLTuhsv9Admb6v9AiNL6DJaHAXS5CvuzOSz/dr+O+KZ63P2qzhD+p5Ym/
lpc_rms=-46.52
offset=6825
pitch_keycenter=E2
sample=Trombone_Scoop_PP_E3.opus
</region>

<region>
hikey=F3
hivel=127
lokey=E3
lovel=0
lpc=l+DXQgRvb8OMvwVDrXIxweOmM0IMAxvCsaQUQYI2L8HesLRALKUEP0hLoMDd6YRAL69DwE9OZr9ykb5Ag0ZSwK6pOkCopQrAjEPdvnQ9vT88EBA/I/l6v+M0o8DyNodA
lpc_rms=-48.41
offset=9501
pitch_keycenter=E3
sample=Trombone_Scoop_PP_E4.opus
</region>

<region>
hikey=F4
hivel=127
lokey=E4
lovel=0
lpc=tBMGQ/iZt8OmXJlDGE5hwk6S9kHLIaXCcFYWQlJOHcHOP7VBDlyCwae2JMA+cUnAgt8LQEC4sD/NORNBR79sv7oksj55BojAqkgYwVin4EBSgrY+H3npQNdlCsHLAxtA
lpc_rms=-43.44
offset=1823
pitch_keycenter=E4
sample=Trombone_Scoop_PP_E5.opus
</region>

<region>
hikey=G2
hivel=127
lokey=F#2
lovel=0
lpc=Jf0NQ2Q/pMOYETpD3gYrwF6UbUIB8jzCklCUwOl8W8Ecl8JAr/9PvgUJVUA0mx/AaNNjPqkFoD8JPL9AXHquv7bGdL8a3lvAkEw9v3VHuL/XPIxAEzNpP351QMBj9nk/
lpc_rms=-45.86
offset=6822
pitch_keycenter=F#2
sample=Trombone_Scoop_PP_F#3.opus
</region>

<region>
hikey=G3
hivel=127
lokey=F#3
lovel=0
lpc=SPxiQ+yuAcQZ2JJDmFtDwQOUvkIttIzCjoG2wL469MGXn3VBfjPgP/PVokAKgjhABdJpvk/+lsCL4I2/hP4Mv9afOEC8GYtAg/2NwEOnt0BS+4fA3R87QHAaYcFrXCVB
lpc_rms=-41.90
offset=5190
pitch_keycenter=F#3
sample=Trombone_Scoop_PP_F#4.opus
</region>

<region>
hikey=G4
hivel=127
lokey=F#4
lovel=0
lpc=c3k7Q+WpFcRY5yNEDup6w7ESTkIzCvfCjiLpQpFiScL8QXlBQV+UwckdxkGo/pbAoSfrvlCTRcE3UGFBK26DP4pgW8E2+OJA4BMswdQpdEHKC1fAKX2QQWCbCsJkOXtB
lpc_rms=-37.33
offset=4146
pitch_keycenter=F#4
sample=Trombone_Scoop_PP_F#5.opus
</region>

<region>
hikey=A2
hivel=127
lokey=G#2
lovel=0
lpc=rSdaQxRD/cOIrJRDurmFwcc8qkKH8o/CqkAiQIafl8Enmm1BbfnVwEOlD0DrAsy+lC22v9a8kcCqPKlAjcS3QHQ90D6Z5MA/JYQCwSBmmT8BQOW/XABbQJDPGcCCZ/0/
lpc_rms=-41.87
offset=7485
pitch_keycenter=G#2
sample=Trombone_Scoop_PP_G#3.opus
</region>

<region>
hikey=A3
hivel=127
lokey=G#3
lovel=0
lpc=ucZqQ5m3C8T49q1DMzTGwWtjtUJGmbHCs/MgQU4C48FFzl9B+pfLwDZ6nT6h0lFB+sjGv50KlUCui1tAOTM4wQnkScB+/YW/K6SWQM3oFUGNNuDAX6A/QMqGhMHi7UdB
lpc_rms=-40.95
offset=6190
pitch_keycenter=G#3
sample=Trombone_Scoop_PP_G#4.opus
</region>

<region>
hikey=A4
hivel=127
lokey=G#4
lovel=0
lpc=lJcfQ2Zl4MPKDM1DEYoAw6lClkLrfunCEfSKQis988HaxpBBMiS0wXHnPkG+F9dAOBWRQNpKE8E0kwpBleXwwBCl578eJAVA7hNuwZT5rkFqlC++h2wpQZcOFcLmrKVB
lpc_rms=-40.00
offset=2472
pitch_keycenter=G#4
sample=Trombone_Scoop_PP_G#5.opus
</region>
</group>

<group>
group_label=MF
lpc_hicc1=84
lpc_locc1=43

<region>
hikey=B2
hivel=127
lokey=A#2
lovel=0
lpc=Lnn0QhS/3MMdzRtEZfPSw1WOLkNPvB3DAwo+Q2sl/MJahGlC1MkwwhPy70FH4QtBz9sBwnZAYUF7LbdBRzURwpmC90GFaC/Cg414Qp8jWsJ69w1Cq4TKwdsxfEHKR43A
lpc_rms=-30.42
pitch_keycenter=A#2
sample=Trombone_Scoop_MF_A#3.opus
</region>

<region>
hikey=B3
hivel=127
lokey=A#3
lovel=0
lpc=Zva/QrxCnMNed7pDjpRAw/aaiEKEtZDCJ8hZQke+s8H82Z9Bz4NWwQps6z4TEDG+m/TxPbR03j+slmRAgnexwJq7l0AtQYvA2jvNPyKh/b+wCHi/fJMFQeJ08cD2egJA
lpc_rms=-26.08
pitch_keycenter=A#3
sample=Trombone_Scoop_MF_A#4.opus
</region>

<region>
hikey=B4
hivel=127
lokey=A#4
lovel=0
lpc=UHCXQpZ6j8OFnfhDaiUGxM7g0UOOSX3DysnaQuhH0cE9axVB6V3pweXEQkJSE07C6fovQrj1M8KrS45CSVPVwtGa9EL5IdzC1aqWQkIq78ESPQ3BmY/lQU6Sw8HmpghB
lpc_rms=-22.93
pitch_keycenter=A#4
sample=Trombone_Scoop_MF_A#5.opus
</region>

<region>
hikey=C#3
hivel=127
lokey=C3
lovel=0
lpc=UzzBQth5usM0expE94ESxFfAvENh0FjDkGYSQwocxMK3U05CvkzMwUwlakGtBsq/5QlmwfhDlUE/E53AoEcwwSyKeUG35qDBbDMCQqiEEsKCLrdBI8mYwDP5K8Dv8Ko/
lpc_rms=-32.24
pitch_keycenter=C3
sample=Trombone_Scoop_MF_C4.opus
</region>

<region>
hikey=C#4
hivel=127
lokey=C4
lovel=0
lpc=narPQt9o0MNqtzJEuIQqxAhizEMkhkHDDz/pQquErsJqfGBCGOcRwjvC3kHEV8jA9+2QwQMd9kCLR9NB0jcGwq3nJkEnAzVA5KxrQJJFUMEqAqVBk7a5warfbkFB73fA
lpc_rms=-28.11
sample=Trombone_Scoop_MF_C5.opus
</region>

<region>
hikey=C#5
hivel=127
lokey=C5
lovel=0
lpc=RcMcQhe5EMNYHXZD7SaCwyIcRUMxYO7C7bOGQqhrGcJ83ZlB14IswUU8O0FgnDzBGvDtQINmxsDcLFBBEo2KwX+nKUGYkP2/q5JRPbVSxT+l3eLAWKVHQSO9L8F1uYRA
lpc_rms=-25.12
pitch_keycenter=C5
sample=Trombone_Scoop_MF_C6.opus
</region>

<region>
hikey=D#3
hivel=127
lokey=D3
lovel=0
lpc=HlPiQkqjvcOJy/FDa8GTw35bAEOyFtbCco21QhbDSMJr3t1BJVeFwV2PJECCmP5AsGrIwF2+YcCG3x9BkHrfwLTNTUDzRB/ARtS4P/0apcBPHttAs8x/PqNWh8BuaN0/
lpc_rms=-31.45
pitch_keycenter=D3
sample=Trombone_Scoop_MF_D4.opus
</region>

<region>
hikey=D#4
hivel=127
lokey=D4
lovel=0
lpc=ZZfwQp9e8cNNhE1E6D5BxHL+40PINl7Da0YUQw1X6sKF2JVCnGknwoMG3EFhXDDBi/FfwUxgRUGNC/FBfzVjwtcV+EERbFE/WZCcv4mGDcAvaTfB6SilQVjBSsH1SzVA
lpc_rms=-27.26
pitch_keycenter=D4
sample=Trombone_Scoop_MF_D5.opus
</region>

<region>
hikey=D#5
hivel=127
lokey=D5
lovel=0
lpc=oIedQt+njcNN4N9DEfzKw6nucEO/r+fCoHKZQiyym8JDdZxCMXmIwt9TRUIcOOnBG120QaoF2MHeiwFCj1vfwVvyRkHRFiY/I5PtwCfyxkFMIVXC36aKQg0jTsJZVYtB
lpc_rms=-23.27
pitch_keycenter=D5
sample=Trombone_Scoop_MF_D6.opus
</region>

<region>
hikey=F2
hivel=127
lokey=C2
lovel=0
lpc=npDuQnnV38MfXytEuPwJxLbNiENg9/3CKeqfQtblX8JKbkRC1b4hwkkar0GpI6LAMBkewRzaYUF1oL8/b/yDwXZUoUGPj73BY+DWQauy2cGe5tJBd8KewdGlDUFzB9q/
lpc_rms=-34.90
pitch_keycenter=E2
sample=Trombone_Scoop_MF_E3.opus
</region>

<region>
hikey=F3
hivel=127
lokey=E3
lovel=0
lpc=cXicQsQPksOPgOZDBDLOwwY/gkONkyLDeSj9QqSe58JTutJChVmcwkDEJ0L9XGLB5ynhQPWZzMHf6FlCe6mNwvKLl0Kxf5TCKWNdQmj04sFkG3BBI14pwdQ4mkDy6EO/
lpc_rms=-33.26
offset=177
pitch_keycenter=E3
sample=Trombone_Scoop_MF_E4.opus
</region>

<region>
hikey=F4
hivel=127
lokey=E4
lovel=0
lpc=9gw1Qg3WHcMDmWRDbJIvwzIUoUK3QwLCGDG9QWqAq8E6ZHlB3hmhwKa1F8Dodd+88HsqQHBx5TwBH4g/Z0CIwP57OUBE8ga/tQ15vbxAV7+xWrc/ebkDP5y4278HykE/
lpc_rms=-30.58
offset=908
pitch_keycenter=E4
sample=Trombone_Scoop_MF_E5.opus
</region>

<region>
hikey=G2
hivel=127
lokey=F#2
lovel=0
lpc=YiDlQtllz8NI0BNEoQzNww9gI0MantvCTDT2QoKOnML9YPdBgYPKwX4cqkHEww9AereHwSjp00DW7PxAFY9kwLxsqMD64xdAVzxIQCRUEsEFKHFBgeI+wfD4aUDMTHm8
lpc_rms=-35.44
pitch_keycenter=F#2
sample=Trombone_Scoop_MF_F#3.opus
</region>

<region>
hikey=G3
hivel=127
lokey=F#3
lovel=0
lpc=NtfSQhyG0MOGbTJE3OcxxLF//UPToKzDF3KDQ5TsOMMDYdRCy2ZLwuN83kD1//hBNIcnwhsYTkER5wxCV8BqwunoMELIKpHBJLh/wK807kEPImfCJ2+AQgW9HMKUMyNB
lpc_rms=-29.68
pitch_keycenter=F#3
sample=Trombone_Scoop_MF_F#4.opus
</region>

<region>
hikey=G4
hivel=127
lokey=F#4
lovel=0
lpc=F+a/QnF7x8Oq/DZEU+tBxD1+A0TeyX/DaJwCQw29yMJIqJ5CNihowhnwM0IeGLHBfuWIwHZLnT5tuhdCPGWLwnGAZUIZxIvBz5QTwamc0kEGAz7C0t9HQqd92cEc7clA
lpc_rms=-28.37
offset=2245
pitch_keycenter=F#4
sample=Trombone_Scoop_MF_F#5.opus
</region>

<region>
hikey=A2
hivel=127
lokey=G#2
lovel=0
lpc=FXzeQgXf08NNmSdEIQYPxIw3nEOV1zLD3kIbQxKl6MJBK35CgzMmwsWwAkLVlm/BsYScP/sSscDN7a9Bsuj3wQGV2UFp9KfBih5yQTLW1MA5I6q/o9dGQIqHOL+aC4G+
lpc_rms=-31.35
pitch_keycenter=G#2
sample=Trombone_Scoop_MF_G#3.opus
</region>

<region>
hikey=A3
hivel=127
lokey=G#3
lovel=0
lpc=ilPrQsYQxMMKqfZDHd2Tw2SVCUOtvwHD1S/XQoyDaMJt5QBCwMhnwV0u/sCNEbFBXwxHwWDbQ8FeIPdBkAfYwZu28EB8W+e/DInfQJRMHUBRVUrBkOUKwA3ReUFBy+jA
lpc_rms=-29.02
pitch_keycenter=G#3
sample=Trombone_Scoop_MF_G#4.opus
</region>

<region>
hikey=A4
hivel=127
lokey=G#4
lovel=0
lpc=63KfQqIul8NKXvRDKaffw40EjkNOVDTDTRATQ1739MINwbZCfJhvwo/pskF9uUtBytO6wbQOXEBJdQBCtSVWwvBQRUJ+yA7CGQSmQSRWFD90P8LBTxERQu4N18F9QgdB
lpc_rms=-30.09
offset=527
pitch_keycenter=G#4
sample=Trombone_Scoop_MF_G#5.opus
</region>
</group>

<group>
group_label=FF
lpc_hicc1=127
lpc_locc1=85

<region>
hikey=B2
hivel=127
lokey=A#2
lovel=0
lpc=XkmMQNgkA8FZkOFA4C2vwEqmjEDjw03AQgAVQNF00L8zrZo/m1tdv3o68z4mxUO+m2aKPRHo5r4vdkM/wDdCv8mPUz9ApiK/x36oPqBN/71qCWy9AOXIPVW2Dr7GiLU9
lpc_rms=-26.32
offset=272
pitch_keycenter=A#2
sample=Trombone_Scoop_FF_A#3.opus
</region>

<region>
hikey=B3
hivel=127
lokey=A#3
lovel=0
lpc=Xn1gQKp9uMC99YpAsNdWwGMeMkCl+AHAypXSPycOir+Vsx4/5ZMNv5au1z7nC5W9i4TmvY5a9b3SlKg+/WqcvsinHT91Aga/vj8NPxKI6r75+kE+G/6BvrvCbj67xRa9
lpc_rms=-23.43
offset=3853
pitch_keycenter=A#3
sample=Trombone_Scoop_FF_A#4.opus
</region>

<region>
hikey=B4
hivel=127
lokey=A#4
lovel=0
lpc=usqcQDKQC8FfdsRA1s5wwDgsWkD0OB7AzqyxP82XjL9S6TE/3K/LPvR5Ob9DqV0/YtsIvxFObL+Ih7g/Uc5Bv8iHwT+jHQ7AcV/PP0RdOb8UQkw+7CDCO2d9YL74D38+
lpc_rms=-18.74
offset=3409
pitch_keycenter=A#4
sample=Trombone_Scoop_FF_A#5.opus
</region>

<region>
hikey=C#3
hivel=127
lokey=C3
lovel=0
lpc=U/OQQL0nB8EPr+VA4K6xwFXKi0Di5EfAo9MXQGB47r8CF88/9jWhv9Ezcj+vKBu/NPKdPtgJKb+DNYA/XwpovwLCSD8s0Ta/2QQWP7Wi9r7OXpg+swU9vanc973AX5A9
lpc_rms=-27.18
pitch_keycenter=C3
sample=Trombone_Scoop_FF_C4.opus
</region>

<region>
hikey=C#4
hivel=127
lokey=C4
lovel=0
lpc=OztqQDflzcA1JaxAFqqKwJ2HV0ALFQXAxTClP58Ncr9fbV4/ZDBKv1AGRD+OViO/mz0SP7tsS78Ee08/cJEjv5McRj/YZTa/0FETPzxP8r58mZs+trE7vpbPN72svPc9
lpc_rms=-25.22
offset=2104
sample=Trombone_Scoop_FF_C5.opus
</region>

<region>
hikey=C#5
hivel=127
lokey=C5
lovel=0
lpc=6j23QAi9NsEjpjBBEpoTwaIo00DKJHjA87lUQAo7PsAYpiZALeMhwDkLHECNWuW/vUGOPwcYEb8UrVs+GZTwvr0qqj9fp7+/52ieP9K1H79iOHK+2FPoPofJ1byF3Mw9
lpc_rms=-19.71
pitch_keycenter=C5
sample=Trombone_Scoop_FF_C6.opus
</region>

<region>
hikey=D#3
hivel=127
lokey=D3
lovel=0
lpc=iDGxQFhHJcEXyglB17HLwCdllEBY31HANOINQFwTlb85wDs/b0ITv1vq1T6IjIm+7V0OP5lYor9s7bk/TfaTv/dRgz8v38K+BdCzvXhcqz4IgO6+44e+Psfeab7cnaQ9
lpc_rms=-22.43
offset=387
pitch_keycenter=D3
sample=Trombone_Scoop_FF_D4.opus
</region>

<region>
hikey=D#4
hivel=127
lokey=D4
lovel=0
lpc=RZvSQKfrZcEBs21Bj2BLwZuCKUHEg//ASjbCQBuCocCqdo5A9h9awJ2EBkCETtK//AaqP53Fk78Ewco/q7Xrv81WDEDVDxfAlQcMQA8p3L+cqJk/6v3gvpBR6DyAoMS6
lpc_rms=-22.28
offset=3162
pitch_keycenter=D4
sample=Trombone_Scoop_FF_D5.opus
</region>

<region>
hikey=D#5
hivel=127
lokey=D5
lovel=0
lpc=TyvCQFEhZcFtB4lBlm2BwZ93Z0GkfT7By+IeQaTPBsHlK+9ATNzMwCTNo0BEnF3A2AwUQDzf8b95kO0/CEDQvxmytz/qmcC/XhrgP940bL/Hd5e+fgCYP+lTsb90yDU/
lpc_rms=-21.64
pitch_keycenter=D5
sample=Trombone_Scoop_FF_D6.opus
</region>

<region>
hikey=F2
hivel=127
lokey=C2
lovel=0
lpc=2PacQKLfH8G3ehpBnmz7wD6CyEAeDJLAazVTQNRPG8Cz7Oc/UYqvv77ahT84QCy/9kavPhcH8b4h+Ts/Emlrv421rD9ADMm/yvbFPyaopb9eOFQ/XK7KvsiP9T3+GPU6
lpc_rms=-28.67
offset=628
pitch_keycenter=E2
sample=Trombone_Scoop_FF_E3.opus
</region>

<region>
hikey=F3
hivel=127
lokey=E3
lovel=0
lpc=kAOlQBloLsF+HS9BQGcMwYMs4kC52KfAgvF0QCyMMcDQmw5A37GwvygSYz8AWom/ryWWP26Wkb8ELa0/weGqv8Cmuj9Y9sq/Cm7GP8SPs79wrK0/A2x/v1FBnT4dbZ49
lpc_rms=-27.19
pitch_keycenter=E3
sample=Trombone_Scoop_FF_E4.opus
</region>

<region>
hikey=F4
hivel=127
lokey=E4
lovel=0
lpc=hHWyQItCNsGaLS9BWqgLwZ+I8UBFWLvAqoyQQNFxYMCF5zZACYYJwKJbwT+lJSu/bFidPhc87r5O0Jw/OcLNv9G56j+J3NS/DuSmP/xiWL+Jdyc/zk3avsdxej7O9Xg9
lpc_rms=-22.59
offset=3083
pitch_keycenter=E4
sample=Trombone_Scoop_FF_E5.opus
</region>

<region>
hikey=G2
hivel=127
lokey=F#2
lovel=0
lpc=kHLOQBSTZ8EnaXhBWxVXwd88NUGu4BPB0mHoQK6PrMDp22xAZe4RwP5HrD9WyWe/A5VoP6yEqr+Sc+U/y/DvvwOI2T/82Yi/nPaoPvWUk7zPPY++LdyfPrxsKb4qVIo9
lpc_rms=-27.88
offset=5867
pitch_keycenter=F#2
sample=Trombone_Scoop_FF_F#3.opus
</region>

<region>
hikey=G3
hivel=127
lokey=F#3
lovel=0
lpc=y8GJQNoM8cCAjb5AEnOVwIzgbUDbbyvA2CQAQMPvv79RKqo/8i+EvwLqGj/EX+S+a4e+Pgooi76hgvw+sU8Zvx7whT5D3Ie9/b+3PWLWpjkdUa6+azoSPw1AHL975aU+
lpc_rms=-24.41
offset=1113
pitch_keycenter=F#3
sample=Trombone_Scoop_FF_F#4.opus
</region>

<region>
hikey=G4
hivel=127
lokey=F#4
lovel=0
lpc=ggrOQNpracEVi4RBXe9swefqQkEg4RjBRTX8QP2xzMCeKbhApmKowKX7jkCACTzARH3EP2A0qb+96v8/QjgCwN0g9j9TYu2/VjHMPweNZb85+gY/oR6XvpZ6zD4XgHi+
lpc_rms=-21.73
offset=3481
pitch_keycenter=F#4
sample=Trombone_Scoop_FF_F#5.opus
</region>

<region>
hikey=A2
hivel=127
lokey=G#2
lovel=0
lpc=M3KmQC8nIcFn8w5B1hjlwBcXwkBrWZHAC3tPQFl/EsBQFNY/uv+8v5ZGiT+fqTS/GFA2PzgEg7/cQaQ//Kmav2WSlj9LR3q/9ykxP9xVC796D8M+Y6hlvklTLr7/1RI+
lpc_rms=-26.00
offset=453
pitch_keycenter=G#2
sample=Trombone_Scoop_FF_G#3.opus
</region>

<region>
hikey=A3
hivel=127
lokey=G#3
lovel=0
lpc=QtNzQBAvysBgy5NAziZcwM8DJEDAtdW/kteOPw1sIL+EMxM/8tjCvrJEMT55GGm+R+5PPqLx97516jo/LSfuvpWw3z6nn+2+fMGpPpPzKL6vBY68H8vePYcssr63CYA+
lpc_rms=-23.81
pitch_keycenter=G#3
sample=Trombone_Scoop_FF_G#4.opus
</region>

<region>
hikey=A4
hivel=127
lokey=G#4
lovel=0
lpc=Q/miQAt9LsHGTjhB/rIhwa8aEEGoz+/AW5i3QB0MgcBonkNAPo8GwJo5sT/354e/yMVePwxJoL8tDQBA8hUpwDhjVEAtPE/AWQotQFGRF8BMFBJA71nZvxQyfz+wJrq+
lpc_rms=-25.86
pitch_keycenter=G#4
sample=Trombone_Scoop_FF_G#5.opus
</region>
</group>